RubikHebrew-Regular.ufo
<glyph name="hyphen" format="1">
  <advance width="484"/>
  <unicode hex="002D"/>
  <outline>
    <contour>
      <point x="392" y="260" type="line" smooth="yes"/>
      <point x="405" y="260"/>
      <point x="415" y="269"/>
      <point x="415" y="282" type="curve" smooth="yes"/>
      <point x="415" y="318" type="line" smooth="yes"/>
      <point x="415" y="331"/>
      <point x="405" y="341"/>
      <point x="392" y="341" type="curve" smooth="yes"/>
      <point x="92" y="341" type="line" smooth="yes"/>
      <point x="79" y="341"/>
      <point x="69" y="331"/>
      <point x="69" y="318" type="curve" smooth="yes"/>
      <point x="69" y="282" type="line" smooth="yes"/>
      <point x="69" y="269"/>
      <point x="79" y="260"/>
      <point x="92" y="260" type="curve" smooth="yes"/>
    </contour>
  </outline>
</glyph>
<glyph name="period" format="1">
  <advance width="250"/>
  <unicode hex="002E"/>
  <outline>
    <contour>
      <point x="160" y="0" type="line" smooth="yes"/>
      <point x="173" y="0"/>
      <point x="184" y="10"/>
      <point x="184" y="23" type="curve" smooth="yes"/>
      <point x="184" y="92" type="line" smooth="yes"/>
      <point x="184" y="105"/>
      <point x="173" y="116"/>
      <point x="160" y="116" type="curve" smooth="yes"/>
      <point x="91" y="116" type="line" smooth="yes"/>
      <point x="78" y="116"/>
      <point x="68" y="105"/>
      <point x="68" y="92" type="curve" smooth="yes"/>
      <point x="68" y="23" type="line" smooth="yes"/>
      <point x="68" y="10"/>
      <point x="78" y="0"/>
      <point x="91" y="0" type="curve" smooth="yes"/>
    </contour>
  </outline>
</glyph>
<glyph name="eight" format="1">
  <advance width="634"/>
  <unicode hex="0038"/>
  <outline>
    <contour>
      <point x="470" y="-10"/>
      <point x="578" y="70"/>
      <point x="578" y="200" type="curve" smooth="yes"/>
      <point x="578" y="282"/>
      <point x="534" y="342"/>
      <point x="469" y="373" type="curve"/>
      <point x="520" y="404"/>
      <point x="552" y="454"/>
      <point x="552" y="522" type="curve" smooth="yes"/>
      <point x="552" y="641"/>
      <point x="456" y="710"/>
      <point x="317" y="710" type="curve" smooth="yes"/>
      <point x="177" y="710"/>
      <point x="81" y="640"/>
      <point x="81" y="522" type="curve" smooth="yes"/>
      <point x="81" y="453"/>
      <point x="113" y="403"/>
      <point x="165" y="373" type="curve"/>
      <point x="100" y="342"/>
      <point x="56" y="282"/>
      <point x="56" y="201" type="curve" smooth="yes"/>
      <point x="56" y="70"/>
      <point x="164" y="-10"/>
      <point x="317" y="-10" type="curve" smooth="yes"/>
    </contour>
    <contour>
      <point x="224" y="68"/>
      <point x="150" y="118"/>
      <point x="150" y="200" type="curve" smooth="yes"/>
      <point x="150" y="282"/>
      <point x="224" y="332"/>
      <point x="317" y="332" type="curve" smooth="yes"/>
      <point x="409" y="332"/>
      <point x="483" y="282"/>
      <point x="483" y="200" type="curve" smooth="yes"/>
      <point x="483" y="118"/>
      <point x="409" y="68"/>
      <point x="317" y="68" type="curve" smooth="yes"/>
    </contour>
    <contour>
      <point x="236" y="408"/>
      <point x="172" y="450"/>
      <point x="172" y="520" type="curve" smooth="yes"/>
      <point x="172" y="590"/>
      <point x="236" y="632"/>
      <point x="317" y="632" type="curve" smooth="yes"/>
      <point x="398" y="632"/>
      <point x="462" y="590"/>
      <point x="462" y="520" type="curve" smooth="yes"/>
      <point x="462" y="451"/>
      <point x="395" y="410"/>
      <point x="317" y="408" type="curve" smooth="yes"/>
    </contour>
  </outline>
</glyph>
<glyph name="A" format="1">
  <advance width="668"/>
  <unicode hex="0041"/>
  <outline>
    <contour>
      <point x="88" y="0" type="line" smooth="yes"/>
      <point x="103" y="0"/>
      <point x="110" y="11"/>
      <point x="113" y="17" type="curve" smooth="yes"/>
      <point x="168" y="161" type="line"/>
      <point x="499" y="161" type="line"/>
      <point x="555" y="17" type="line" smooth="yes"/>
      <point x="557" y="11"/>
      <point x="565" y="0"/>
      <point x="580" y="0" type="curve" smooth="yes"/>
      <point x="627" y="0" type="line" smooth="yes"/>
      <point x="638" y="0"/>
      <point x="648" y="9"/>
      <point x="648" y="20" type="curve" smooth="yes"/>
      <point x="648" y="22"/>
      <point x="647" y="28"/>
      <point x="646" y="31" type="curve" smooth="yes"/>
      <point x="398" y="678" type="line"/>
      <point x="393" y="691"/>
      <point x="384" y="700"/>
      <point x="366" y="700" type="curve" smooth="yes"/>
      <point x="302" y="700" type="line" smooth="yes"/>
      <point x="284" y="700"/>
      <point x="275" y="691"/>
      <point x="270" y="678" type="curve"/>
      <point x="22" y="31" type="line" smooth="yes"/>
      <point x="21" y="28"/>
      <point x="20" y="22"/>
      <point x="20" y="20" type="curve" smooth="yes"/>
      <point x="20" y="9"/>
      <point x="29" y="0"/>
      <point x="40" y="0" type="curve" smooth="yes"/>
    </contour>
    <contour>
      <point x="334" y="603" type="line"/>
      <point x="471" y="244" type="line"/>
      <point x="197" y="244" type="line"/>
    </contour>
  </outline>
</glyph>
<glyph name="P" format="1">
  <advance width="641"/>
  <unicode hex="0050"/>
  <outline>
    <contour>
      <point x="159" y="0" type="line" smooth="yes"/>
      <point x="173" y="0"/>
      <point x="183" y="10"/>
      <point x="183" y="23" type="curve" smooth="yes"/>
      <point x="183" y="275" type="line"/>
      <point x="363" y="275" type="line" smooth="yes"/>
      <point x="510" y="275"/>
      <point x="605" y="346"/>
      <point x="605" y="487" type="curve" smooth="yes"/>
      <point x="605" y="628"/>
      <point x="510" y="700"/>
      <point x="363" y="700" type="curve" smooth="yes"/>
      <point x="110" y="700" type="line" smooth="yes"/>
      <point x="97" y="700"/>
      <point x="87" y="691"/>
      <point x="87" y="676" type="curve" smooth="yes"/>
      <point x="87" y="23" type="line" smooth="yes"/>
      <point x="87" y="10"/>
      <point x="97" y="0"/>
      <point x="110" y="0" type="curve" smooth="yes"/>
    </contour>
    <contour>
      <point x="182" y="619" type="line"/>
      <point x="358" y="619" type="line" smooth="yes"/>
      <point x="461" y="619"/>
      <point x="509" y="570"/>
      <point x="509" y="487" type="curve" smooth="yes"/>
      <point x="509" y="401"/>
      <point x="458" y="356"/>
      <point x="358" y="356" type="curve" smooth="yes"/>
      <point x="182" y="356" type="line"/>
    </contour>
  </outline>
</glyph>
<glyph name="R" format="1">
  <advance width="654"/>
  <unicode hex="0052"/>
  <outline>
    <contour>
      <point x="158" y="0" type="line" smooth="yes"/>
      <point x="172" y="0"/>
      <point x="181" y="10"/>
      <point x="181" y="23" type="curve" smooth="yes"/>
      <point x="181" y="283" type="line"/>
      <point x="360" y="283" type="line"/>
      <point x="507" y="27" type="line" smooth="yes"/>
      <point x="514" y="14"/>
      <point x="523" y="0"/>
      <point x="545" y="0" type="curve" smooth="yes"/>
      <point x="590" y="0" type="line" smooth="yes"/>
      <point x="601" y="0"/>
      <point x="610" y="9"/>
      <point x="610" y="20" type="curve" smooth="yes"/>
      <point x="610" y="25"/>
      <point x="609" y="27"/>
      <point x="607" y="31" type="curve" smooth="yes"/>
      <point x="452" y="298" type="line"/>
      <point x="542" y="323"/>
      <point x="596" y="387"/>
      <point x="596" y="491" type="curve" smooth="yes"/>
      <point x="596" y="630"/>
      <point x="502" y="700"/>
      <point x="353" y="700" type="curve" smooth="yes"/>
      <point x="110" y="700" type="line" smooth="yes"/>
      <point x="97" y="700"/>
      <point x="87" y="691"/>
      <point x="87" y="676" type="curve" smooth="yes"/>
      <point x="87" y="23" type="line" smooth="yes"/>
      <point x="87" y="10"/>
      <point x="97" y="0"/>
      <point x="110" y="0" type="curve" smooth="yes"/>
    </contour>
    <contour>
      <point x="182" y="619" type="line"/>
      <point x="350" y="619" type="line" smooth="yes"/>
      <point x="452" y="619"/>
      <point x="501" y="575"/>
      <point x="501" y="492" type="curve" smooth="yes"/>
      <point x="501" y="408"/>
      <point x="452" y="365"/>
      <point x="350" y="365" type="curve" smooth="yes"/>
      <point x="182" y="365" type="line"/>
    </contour>
  </outline>
</glyph>
<glyph name="T" format="1">
  <advance width="577"/>
  <unicode hex="0054"/>
  <outline>
    <contour>
      <point x="312" y="0" type="line" smooth="yes"/>
      <point x="326" y="0"/>
      <point x="335" y="10"/>
      <point x="335" y="23" type="curve" smooth="yes"/>
      <point x="335" y="614" type="line"/>
      <point x="527" y="614" type="line" smooth="yes"/>
      <point x="541" y="614"/>
      <point x="551" y="624"/>
      <point x="551" y="637" type="curve" smooth="yes"/>
      <point x="551" y="676" type="line" smooth="yes"/>
      <point x="551" y="691"/>
      <point x="541" y="700"/>
      <point x="527" y="700" type="curve" smooth="yes"/>
      <point x="48" y="700" type="line" smooth="yes"/>
      <point x="35" y="700"/>
      <point x="25" y="691"/>
      <point x="25" y="676" type="curve" smooth="yes"/>
      <point x="25" y="637" type="line" smooth="yes"/>
      <point x="25" y="624"/>
      <point x="35" y="614"/>
      <point x="48" y="614" type="curve" smooth="yes"/>
      <point x="241" y="614" type="line"/>
      <point x="241" y="23" type="line" smooth="yes"/>
      <point x="241" y="10"/>
      <point x="250" y="0"/>
      <point x="263" y="0" type="curve" smooth="yes"/>
    </contour>
  </outline>
</glyph>
<glyph name="W" format="1">
  <advance width="799"/>
  <unicode hex="0057"/>
  <outline>
    <contour>
      <point x="243" y="0" type="line" smooth="yes"/>
      <point x="260" y="0"/>
      <point x="271" y="10"/>
      <point x="275" y="25" type="curve" smooth="yes"/>
      <point x="400" y="410" type="line"/>
      <point x="524" y="25" type="line" smooth="yes"/>
      <point x="529" y="10"/>
      <point x="539" y="0"/>
      <point x="557" y="0" type="curve" smooth="yes"/>
      <point x="593" y="0" type="line" smooth="yes"/>
      <point x="611" y="0"/>
      <point x="621" y="9"/>
      <point x="624" y="26" type="curve"/>
      <point x="754" y="669" type="line"/>
      <point x="755" y="674"/>
      <point x="755" y="678"/>
      <point x="755" y="680" type="curve" smooth="yes"/>
      <point x="755" y="691"/>
      <point x="746" y="700"/>
      <point x="735" y="700" type="curve" smooth="yes"/>
      <point x="687" y="700" type="line" smooth="yes"/>
      <point x="672" y="700"/>
      <point x="664" y="694"/>
      <point x="662" y="683" type="curve" smooth="yes"/>
      <point x="559" y="161" type="line"/>
      <point x="449" y="521" type="line" smooth="yes"/>
      <point x="445" y="533"/>
      <point x="436" y="545"/>
      <point x="417" y="545" type="curve" smooth="yes"/>
      <point x="382" y="545" type="line" smooth="yes"/>
      <point x="363" y="545"/>
      <point x="354" y="533"/>
      <point x="351" y="521" type="curve" smooth="yes"/>
      <point x="240" y="161" type="line"/>
      <point x="137" y="683" type="line" smooth="yes"/>
      <point x="135" y="694"/>
      <point x="128" y="700"/>
      <point x="113" y="700" type="curve" smooth="yes"/>
      <point x="64" y="700" type="line" smooth="yes"/>
      <point x="53" y="700"/>
      <point x="44" y="691"/>
      <point x="44" y="680" type="curve" smooth="yes"/>
      <point x="44" y="678"/>
      <point x="45" y="674"/>
      <point x="46" y="669" type="curve"/>
      <point x="175" y="26" type="line"/>
      <point x="179" y="9"/>
      <point x="188" y="0"/>
      <point x="206" y="0" type="curve" smooth="yes"/>
    </contour>
  </outline>
</glyph>
<glyph name="backslash" format="1">
  <advance width="479"/>
  <unicode hex="005C"/>
  <outline>
    <contour>
      <point x="433" y="-84" type="line" smooth="yes"/>
      <point x="444" y="-84"/>
      <point x="453" y="-75"/>
      <point x="453" y="-64" type="curve" smooth="yes"/>
      <point x="453" y="-62"/>
      <point x="452" y="-57"/>
      <point x="450" y="-52" type="curve"/>
      <point x="108" y="769" type="line" smooth="yes"/>
      <point x="105" y="775"/>
      <point x="97" y="786"/>
      <point x="82" y="786" type="curve" smooth="yes"/>
      <point x="45" y="786" type="line" smooth="yes"/>
      <point x="34" y="786"/>
      <point x="25" y="777"/>
      <point x="25" y="766" type="curve" smooth="yes"/>
      <point x="25" y="764"/>
      <point x="26" y="759"/>
      <point x="28" y="754" type="curve" smooth="yes"/>
      <point x="371" y="-67" type="line" smooth="yes"/>
      <point x="373" y="-73"/>
      <point x="381" y="-84"/>
      <point x="397" y="-84" type="curve" smooth="yes"/>
    </contour>
  </outline>
</glyph>
<glyph name="bracketright" format="1">
  <advance width="323"/>
  <unicode hex="005D"/>
  <outline>
    <contour>
      <point x="226" y="-159" type="line" smooth="yes"/>
      <point x="239" y="-159"/>
      <point x="249" y="-150"/>
      <point x="249" y="-136" type="curve" smooth="yes"/>
      <point x="249" y="753" type="line" smooth="yes"/>
      <point x="249" y="767"/>
      <point x="239" y="776"/>
      <point x="226" y="776" type="curve" smooth="yes"/>
      <point x="50" y="776" type="line" smooth="yes"/>
      <point x="37" y="776"/>
      <point x="27" y="767"/>
      <point x="27" y="753" type="curve" smooth="yes"/>
      <point x="27" y="720" type="line" smooth="yes"/>
      <point x="27" y="707"/>
      <point x="37" y="697"/>
      <point x="50" y="697" type="curve" smooth="yes"/>
      <point x="163" y="697" type="line"/>
      <point x="163" y="-77" type="line"/>
      <point x="50" y="-77" type="line" smooth="yes"/>
      <point x="37" y="-77"/>
      <point x="27" y="-87"/>
      <point x="27" y="-100" type="curve" smooth="yes"/>
      <point x="27" y="-136" type="line" smooth="yes"/>
      <point x="27" y="-150"/>
      <point x="37" y="-159"/>
      <point x="50" y="-159" type="curve" smooth="yes"/>
    </contour>
  </outline>
</glyph>
<glyph name="asciicircum" format="1">
  <advance width="430"/>
  <unicode hex="005E"/>
  <outline>
    <contour>
      <point x="106" y="578" type="line" smooth="yes"/>
      <point x="114" y="578"/>
      <point x="127" y="581"/>
      <point x="133" y="585" type="curve" smooth="yes"/>
      <point x="215" y="642" type="line"/>
      <point x="297" y="585" type="line" smooth="yes"/>
      <point x="303" y="581"/>
      <point x="316" y="578"/>
      <point x="325" y="578" type="curve" smooth="yes"/>
      <point x="350" y="578" type="line" smooth="yes"/>
      <point x="360" y="578"/>
      <point x="364" y="582"/>
      <point x="364" y="590" type="curve" smooth="yes"/>
      <point x="364" y="596"/>
      <point x="360" y="602"/>
      <point x="353" y="609" type="curve" smooth="yes"/>
      <point x="262" y="700" type="line" smooth="yes"/>
      <point x="248" y="714"/>
      <point x="240" y="715"/>
      <point x="229" y="715" type="curve" smooth="yes"/>
      <point x="201" y="715" type="line" smooth="yes"/>
      <point x="190" y="715"/>
      <point x="182" y="714"/>
      <point x="168" y="700" type="curve" smooth="yes"/>
      <point x="77" y="609" type="line" smooth="yes"/>
      <point x="70" y="602"/>
      <point x="66" y="596"/>
      <point x="66" y="590" type="curve" smooth="yes"/>
      <point x="66" y="582"/>
      <point x="70" y="578"/>
      <point x="80" y="578" type="curve" smooth="yes"/>
    </contour>
  </outline>
</glyph>
<glyph name="g" format="1">
  <advance width="595"/>
  <unicode hex="0067"/>
  <outline>
    <contour>
      <point x="460" y="-220"/>
      <point x="520" y="-124"/>
      <point x="520" y="11" type="curve"/>
      <point x="519" y="496" type="line"/>
      <point x="519" y="510"/>
      <point x="509" y="520"/>
      <point x="496" y="520" type="curve"/>
      <point x="453" y="520" type="line"/>
      <point x="440" y="520"/>
      <point x="430" y="510"/>
      <point x="430" y="496" type="curve"/>
      <point x="430" y="453" type="line"/>
      <point x="398" y="496"/>
      <point x="345" y="530"/>
      <point x="266" y="530" type="curve" smooth="yes"/>
      <point x="115" y="530"/>
      <point x="56" y="414"/>
      <point x="52" y="290" type="curve"/>
      <point x="51" y="270"/>
      <point x="51" y="255"/>
      <point x="52" y="235" type="curve"/>
      <point x="56" y="110"/>
      <point x="115" y="-5"/>
      <point x="266" y="-5" type="curve" smooth="yes"/>
      <point x="344" y="-5"/>
      <point x="395" y="27"/>
      <point x="428" y="69" type="curve"/>
      <point x="428" y="0" type="line"/>
      <point x="428" y="-113"/>
      <point x="376" y="-145"/>
      <point x="281" y="-145" type="curve" smooth="yes"/>
      <point x="190" y="-145"/>
      <point x="164" y="-94"/>
      <point x="154" y="-65" type="curve" smooth="yes"/>
      <point x="148" y="-48"/>
      <point x="140" y="-44"/>
      <point x="129" y="-44" type="curve"/>
      <point x="85" y="-44" type="line"/>
      <point x="72" y="-44"/>
      <point x="61" y="-54"/>
      <point x="62" y="-68" type="curve" smooth="yes"/>
      <point x="64" y="-108"/>
      <point x="106" y="-220"/>
      <point x="286" y="-220" type="curve" smooth="yes"/>
    </contour>
    <contour>
      <point x="180" y="73"/>
      <point x="146" y="150"/>
      <point x="143" y="236" type="curve" smooth="yes"/>
      <point x="142" y="254"/>
      <point x="142" y="271"/>
      <point x="143" y="289" type="curve"/>
      <point x="146" y="375"/>
      <point x="180" y="452"/>
      <point x="284" y="452" type="curve" smooth="yes"/>
      <point x="385" y="452"/>
      <point x="423" y="371"/>
      <point x="427" y="297" type="curve" smooth="yes"/>
      <point x="428" y="279"/>
      <point x="428" y="246"/>
      <point x="427" y="228" type="curve" smooth="yes"/>
      <point x="423" y="154"/>
      <point x="385" y="73"/>
      <point x="284" y="73" type="curve" smooth="yes"/>
    </contour>
  </outline>
</glyph>
<glyph name="h" format="1">
  <advance width="607"/>
  <unicode hex="0068"/>
  <outline>
    <contour>
      <point x="146" y="0" type="line" smooth="yes"/>
      <point x="159" y="0"/>
      <point x="168" y="10"/>
      <point x="168" y="23" type="curve" smooth="yes"/>
      <point x="168" y="300" type="line" smooth="yes"/>
      <point x="168" y="395"/>
      <point x="224" y="452"/>
      <point x="309" y="452" type="curve" smooth="yes"/>
      <point x="397" y="452"/>
      <point x="444" y="395"/>
      <point x="444" y="300" type="curve" smooth="yes"/>
      <point x="444" y="23" type="line" smooth="yes"/>
      <point x="444" y="10"/>
      <point x="454" y="0"/>
      <point x="467" y="0" type="curve" smooth="yes"/>
      <point x="514" y="0" type="line" smooth="yes"/>
      <point x="527" y="0"/>
      <point x="537" y="10"/>
      <point x="537" y="23" type="curve" smooth="yes"/>
      <point x="537" y="306" type="line" smooth="yes"/>
      <point x="537" y="438"/>
      <point x="464" y="530"/>
      <point x="334" y="530" type="curve" smooth="yes"/>
      <point x="252" y="530"/>
      <point x="204" y="499"/>
      <point x="168" y="454" type="curve"/>
      <point x="168" y="687" type="line" smooth="yes"/>
      <point x="168" y="701"/>
      <point x="159" y="710"/>
      <point x="146" y="710" type="curve" smooth="yes"/>
      <point x="99" y="710" type="line" smooth="yes"/>
      <point x="86" y="710"/>
      <point x="76" y="701"/>
      <point x="76" y="687" type="curve" smooth="yes"/>
      <point x="76" y="23" type="line" smooth="yes"/>
      <point x="76" y="10"/>
      <point x="86" y="0"/>
      <point x="99" y="0" type="curve" smooth="yes"/>
    </contour>
  </outline>
</glyph>
<glyph name="j" format="1">
  <advance width="252"/>
  <unicode hex="006A"/>
  <outline>
    <contour>
      <point x="7" y="-190" type="line" smooth="yes"/>
      <point x="133" y="-190"/>
      <point x="176" y="-117"/>
      <point x="176" y="-14" type="curve" smooth="yes"/>
      <point x="176" y="497" type="line" smooth="yes"/>
      <point x="176" y="511"/>
      <point x="166" y="520"/>
      <point x="153" y="520" type="curve" smooth="yes"/>
      <point x="107" y="520" type="line" smooth="yes"/>
      <point x="94" y="520"/>
      <point x="84" y="511"/>
      <point x="84" y="497" type="curve" smooth="yes"/>
      <point x="84" y="-13" type="line" smooth="yes"/>
      <point x="84" y="-69"/>
      <point x="75" y="-113"/>
      <point x="2" y="-113" type="curve" smooth="yes"/>
      <point x="-11" y="-113" type="line" smooth="yes"/>
      <point x="-24" y="-113"/>
      <point x="-34" y="-122"/>
      <point x="-34" y="-135" type="curve" smooth="yes"/>
      <point x="-34" y="-167" type="line" smooth="yes"/>
      <point x="-34" y="-181"/>
      <point x="-24" y="-190"/>
      <point x="-11" y="-190" type="curve" smooth="yes"/>
    </contour>
    <contour>
      <point x="160" y="618" type="line" smooth="yes"/>
      <point x="173" y="618"/>
      <point x="184" y="628"/>
      <point x="184" y="641" type="curve" smooth="yes"/>
      <point x="184" y="693" type="line" smooth="yes"/>
      <point x="184" y="706"/>
      <point x="173" y="717"/>
      <point x="160" y="717" type="curve" smooth="yes"/>
      <point x="99" y="717" type="line" smooth="yes"/>
      <point x="86" y="717"/>
      <point x="76" y="706"/>
      <point x="76" y="693" type="curve" smooth="yes"/>
      <point x="76" y="641" type="line" smooth="yes"/>
      <point x="76" y="628"/>
      <point x="86" y="618"/>
      <point x="99" y="618" type="curve" smooth="yes"/>
    </contour>
  </outline>
</glyph>
<glyph name="n" format="1">
  <advance width="604"/>
  <unicode hex="006E"/>
  <outline>
    <contour>
      <point x="144" y="0" type="line" smooth="yes"/>
      <point x="157" y="0"/>
      <point x="167" y="10"/>
      <point x="167" y="23" type="curve" smooth="yes"/>
      <point x="167" y="300" type="line" smooth="yes"/>
      <point x="167" y="395"/>
      <point x="222" y="452"/>
      <point x="307" y="452" type="curve" smooth="yes"/>
      <point x="395" y="452"/>
      <point x="442" y="395"/>
      <point x="442" y="300" type="curve" smooth="yes"/>
      <point x="442" y="23" type="line" smooth="yes"/>
      <point x="442" y="10"/>
      <point x="452" y="0"/>
      <point x="465" y="0" type="curve" smooth="yes"/>
      <point x="511" y="0" type="line" smooth="yes"/>
      <point x="525" y="0"/>
      <point x="534" y="10"/>
      <point x="534" y="23" type="curve" smooth="yes"/>
      <point x="534" y="306" type="line" smooth="yes"/>
      <point x="534" y="438"/>
      <point x="462" y="530"/>
      <point x="332" y="530" type="curve" smooth="yes"/>
      <point x="248" y="530"/>
      <point x="200" y="498"/>
      <point x="164" y="453" type="curve"/>
      <point x="164" y="497" type="line" smooth="yes"/>
      <point x="164" y="511"/>
      <point x="155" y="520"/>
      <point x="141" y="520" type="curve" smooth="yes"/>
      <point x="98" y="520" type="line" smooth="yes"/>
      <point x="85" y="520"/>
      <point x="75" y="511"/>
      <point x="75" y="497" type="curve" smooth="yes"/>
      <point x="75" y="23" type="line" smooth="yes"/>
      <point x="75" y="10"/>
      <point x="85" y="0"/>
      <point x="98" y="0" type="curve" smooth="yes"/>
    </contour>
  </outline>
</glyph>
<glyph name="sterling" format="1">
  <advance width="675"/>
  <unicode hex="00A3"/>
  <outline>
    <contour>
      <point x="548" y="-6"/>
      <point x="616" y="52"/>
      <point x="619" y="159" type="curve" smooth="yes"/>
      <point x="619" y="169"/>
      <point x="612" y="178"/>
      <point x="600" y="178" type="curve" smooth="yes"/>
      <point x="557" y="178" type="line" smooth="yes"/>
      <point x="547" y="178"/>
      <point x="540" y="167"/>
      <point x="538" y="161" type="curve" smooth="yes"/>
      <point x="528" y="113"/>
      <point x="512" y="76"/>
      <point x="454" y="76" type="curve" smooth="yes"/>
      <point x="378" y="76"/>
      <point x="345" y="157"/>
      <point x="255" y="174" type="curve"/>
      <point x="254" y="220"/>
      <point x="247" y="262"/>
      <point x="241" y="304" type="curve"/>
      <point x="428" y="304" type="line" smooth="yes"/>
      <point x="441" y="304"/>
      <point x="450" y="314"/>
      <point x="450" y="327" type="curve" smooth="yes"/>
      <point x="450" y="359" type="line" smooth="yes"/>
      <point x="450" y="372"/>
      <point x="441" y="382"/>
      <point x="428" y="382" type="curve" smooth="yes"/>
      <point x="233" y="382" type="line"/>
      <point x="230" y="404"/>
      <point x="229" y="428"/>
      <point x="229" y="453" type="curve" smooth="yes"/>
      <point x="229" y="556"/>
      <point x="276" y="629"/>
      <point x="371" y="629" type="curve" smooth="yes"/>
      <point x="456" y="629"/>
      <point x="501" y="578"/>
      <point x="518" y="490" type="curve" smooth="yes"/>
      <point x="521" y="477"/>
      <point x="532" y="468"/>
      <point x="544" y="468" type="curve" smooth="yes"/>
      <point x="593" y="468" type="line" smooth="yes"/>
      <point x="605" y="468"/>
      <point x="614" y="478"/>
      <point x="614" y="490" type="curve" smooth="yes"/>
      <point x="611" y="610"/>
      <point x="527" y="711"/>
      <point x="372" y="711" type="curve" smooth="yes"/>
      <point x="209" y="711"/>
      <point x="134" y="597"/>
      <point x="134" y="454" type="curve" smooth="yes"/>
      <point x="134" y="428"/>
      <point x="134" y="404"/>
      <point x="136" y="382" type="curve"/>
      <point x="72" y="382" type="line" smooth="yes"/>
      <point x="59" y="382"/>
      <point x="49" y="372"/>
      <point x="49" y="359" type="curve" smooth="yes"/>
      <point x="49" y="327" type="line" smooth="yes"/>
      <point x="49" y="314"/>
      <point x="59" y="304"/>
      <point x="72" y="304" type="curve" smooth="yes"/>
      <point x="149" y="304" type="line"/>
      <point x="156" y="257"/>
      <point x="164" y="217"/>
      <point x="165" y="176" type="curve"/>
      <point x="101" y="161"/>
      <point x="52" y="111"/>
      <point x="49" y="19" type="curve" smooth="yes"/>
      <point x="49" y="9"/>
      <point x="56" y="0"/>
      <point x="68" y="0" type="curve" smooth="yes"/>
      <point x="113" y="0" type="line" smooth="yes"/>
      <point x="129" y="0"/>
      <point x="132" y="12"/>
      <point x="133" y="19" type="curve" smooth="yes"/>
      <point x="142" y="66"/>
      <point x="156" y="100"/>
      <point x="213" y="100" type="curve" smooth="yes"/>
      <point x="297" y="100"/>
      <point x="337" y="-6"/>
      <point x="461" y="-6" type="curve" smooth="yes"/>
    </contour>
  </outline>
</glyph>
<glyph name="brokenbar" format="1">
  <advance width="237"/>
  <unicode hex="00A6"/>
  <outline>
    <contour>
      <point x="136" y="475" type="line" smooth="yes"/>
      <point x="150" y="475"/>
      <point x="159" y="485"/>
      <point x="159" y="498" type="curve" smooth="yes"/>
      <point x="159" y="806" type="line" smooth="yes"/>
      <point x="159" y="820"/>
      <point x="150" y="829"/>
      <point x="136" y="829" type="curve" smooth="yes"/>
      <point x="100" y="829" type="line"/>
      <point x="87" y="829"/>
      <point x="77" y="820"/>
      <point x="77" y="806" type="curve" smooth="yes"/>
      <point x="77" y="498" type="line" smooth="yes"/>
      <point x="77" y="485"/>
      <point x="87" y="475"/>
      <point x="100" y="475" type="curve" smooth="yes"/>
    </contour>
    <contour>
      <point x="136" y="0" type="line" smooth="yes"/>
      <point x="150" y="0"/>
      <point x="159" y="10"/>
      <point x="159" y="23" type="curve" smooth="yes"/>
      <point x="159" y="331" type="line" smooth="yes"/>
      <point x="159" y="345"/>
      <point x="150" y="354"/>
      <point x="136" y="354" type="curve" smooth="yes"/>
      <point x="100" y="354" type="line"/>
      <point x="87" y="354"/>
      <point x="77" y="345"/>
      <point x="77" y="331" type="curve" smooth="yes"/>
      <point x="77" y="23" type="line" smooth="yes"/>
      <point x="77" y="10"/>
      <point x="87" y="0"/>
      <point x="100" y="0" type="curve" smooth="yes"/>
    </contour>
  </outline>
</glyph>
<glyph name="copyright" format="1">
  <advance width="827"/>
  <unicode hex="00A9"/>
  <outline>
    <contour>
      <point x="612" y="-10"/>
      <point x="773" y="151"/>
      <point x="773" y="350" type="curve" smooth="yes"/>
      <point x="773" y="549"/>
      <point x="612" y="710"/>
      <point x="413" y="710" type="curve" smooth="yes"/>
      <point x="214" y="710"/>
      <point x="53" y="549"/>
      <point x="53" y="350" type="curve" smooth="yes"/>
      <point x="53" y="151"/>
      <point x="214" y="-10"/>
      <point x="413" y="-10" type="curve" smooth="yes"/>
    </contour>
    <contour>
      <point x="251" y="52"/>
      <point x="120" y="187"/>
      <point x="120" y="350" type="curve" smooth="yes"/>
      <point x="120" y="513"/>
      <point x="251" y="648"/>
      <point x="413" y="648" type="curve" smooth="yes"/>
      <point x="576" y="648"/>
      <point x="707" y="513"/>
      <point x="707" y="350" type="curve" smooth="yes"/>
      <point x="707" y="187"/>
      <point x="576" y="52"/>
      <point x="413" y="52" type="curve" smooth="yes"/>
    </contour>
    <contour>
      <point x="523" y="158"/>
      <point x="575" y="220"/>
      <point x="575" y="269" type="curve" smooth="yes"/>
      <point x="575" y="282"/>
      <point x="566" y="291"/>
      <point x="553" y="291" type="curve" smooth="yes"/>
      <point x="523" y="291" type="line" smooth="yes"/>
      <point x="509" y="291"/>
      <point x="504" y="281"/>
      <point x="500" y="271" type="curve" smooth="yes"/>
      <point x="488" y="241"/>
      <point x="464" y="224"/>
      <point x="413" y="224" type="curve" smooth="yes"/>
      <point x="341" y="224"/>
      <point x="325" y="278"/>
      <point x="323" y="317" type="curve" smooth="yes"/>
      <point x="322" y="335"/>
      <point x="322" y="367"/>
      <point x="323" y="385" type="curve" smooth="yes"/>
      <point x="325" y="424"/>
      <point x="341" y="478"/>
      <point x="413" y="478" type="curve" smooth="yes"/>
      <point x="464" y="478"/>
      <point x="488" y="461"/>
      <point x="500" y="431" type="curve" smooth="yes"/>
      <point x="504" y="421"/>
      <point x="509" y="411"/>
      <point x="523" y="411" type="curve" smooth="yes"/>
      <point x="553" y="411" type="line" smooth="yes"/>
      <point x="566" y="411"/>
      <point x="575" y="420"/>
      <point x="575" y="433" type="curve" smooth="yes"/>
      <point x="575" y="482"/>
      <point x="523" y="544"/>
      <point x="413" y="544" type="curve" smooth="yes"/>
      <point x="311" y="544"/>
      <point x="252" y="473"/>
      <point x="249" y="386" type="curve" smooth="yes"/>
      <point x="248" y="368"/>
      <point x="248" y="335"/>
      <point x="249" y="316" type="curve" smooth="yes"/>
      <point x="252" y="229"/>
      <point x="311" y="158"/>
      <point x="413" y="158" type="curve" smooth="yes"/>
    </contour>
  </outline>
</glyph>
<glyph name="paragraph" format="1">
  <advance width="527"/>
  <unicode hex="00B6"/>
  <outline>
    <contour>
      <point x="268" y="-100" type="line" smooth="yes"/>
      <point x="281" y="-100"/>
      <point x="290" y="-91"/>
      <point x="290" y="-77" type="curve" smooth="yes"/>
      <point x="290" y="627" type="line"/>
      <point x="369" y="627" type="line"/>
      <point x="369" y="-77" type="line" smooth="yes"/>
      <point x="369" y="-91"/>
      <point x="379" y="-100"/>
      <point x="392" y="-100" type="curve" smooth="yes"/>
      <point x="427" y="-100" type="line" smooth="yes"/>
      <point x="440" y="-100"/>
      <point x="449" y="-91"/>
      <point x="449" y="-77" type="curve" smooth="yes"/>
      <point x="449" y="677" type="line" smooth="yes"/>
      <point x="449" y="691"/>
      <point x="440" y="700"/>
      <point x="427" y="700" type="curve" smooth="yes"/>
      <point x="210" y="700" type="line" smooth="yes"/>
      <point x="111" y="700"/>
      <point x="30" y="620"/>
      <point x="30" y="520" type="curve" smooth="yes"/>
      <point x="30" y="420"/>
      <point x="111" y="339"/>
      <point x="210" y="339" type="curve"/>
      <point x="210" y="-77" type="line" smooth="yes"/>
      <point x="210" y="-91"/>
      <point x="220" y="-100"/>
      <point x="233" y="-100" type="curve" smooth="yes"/>
    </contour>
  </outline>
</glyph>
<glyph name="cedilla" format="1">
  <advance width="314"/>
  <unicode hex="00B8"/>
  <outline>
    <contour>
      <point x="215" y="-221"/>
      <point x="247" y="-181"/>
      <point x="247" y="-132" type="curve" smooth="yes"/>
      <point x="247" y="-83"/>
      <point x="216" y="-48"/>
      <point x="170" y="-48" type="curve" smooth="yes"/>
      <point x="157" y="-48"/>
      <point x="142" y="-51"/>
      <point x="134" y="-56" type="curve"/>
      <point x="175" y="27" type="line"/>
      <point x="115" y="27" type="line"/>
      <point x="80" y="-53" type="line" smooth="yes"/>
      <point x="76" y="-64"/>
      <point x="69" y="-75"/>
      <point x="77" y="-83" type="curve" smooth="yes"/>
      <point x="93" y="-101" type="line" smooth="yes"/>
      <point x="108" y="-117"/>
      <point x="123" y="-98"/>
      <point x="152" y="-98" type="curve" smooth="yes"/>
      <point x="175" y="-98"/>
      <point x="193" y="-111"/>
      <point x="193" y="-133" type="curve" smooth="yes"/>
      <point x="193" y="-156"/>
      <point x="175" y="-171"/>
      <point x="152" y="-171" type="curve" smooth="yes"/>
      <point x="110" y="-171"/>
      <point x="103" y="-139"/>
      <point x="86" y="-155" type="curve" smooth="yes"/>
      <point x="71" y="-169" type="line" smooth="yes"/>
      <point x="54" y="-185"/>
      <point x="96" y="-219"/>
      <point x="152" y="-220" type="curve" smooth="yes"/>
    </contour>
  </outline>
</glyph>
<glyph name="multiply" format="1">
  <advance width="557"/>
  <unicode hex="00D7"/>
  <outline>
    <contour>
      <point x="107" y="113"/>
      <point x="121" y="113"/>
      <point x="130" y="122" type="curve" smooth="yes"/>
      <point x="278" y="270" type="line"/>
      <point x="426" y="123" type="line" smooth="yes"/>
      <point x="436" y="113"/>
      <point x="449" y="113"/>
      <point x="459" y="123" type="curve" smooth="yes"/>
      <point x="489" y="153" type="line" smooth="yes"/>
      <point x="498" y="162"/>
      <point x="498" y="175"/>
      <point x="489" y="185" type="curve" smooth="yes"/>
      <point x="340" y="332" type="line"/>
      <point x="489" y="481" type="line" smooth="yes"/>
      <point x="498" y="490"/>
      <point x="498" y="504"/>
      <point x="489" y="513" type="curve" smooth="yes"/>
      <point x="459" y="543" type="line" smooth="yes"/>
      <point x="449" y="552"/>
      <point x="436" y="552"/>
      <point x="426" y="543" type="curve" smooth="yes"/>
      <point x="278" y="394" type="line"/>
      <point x="130" y="543" type="line" smooth="yes"/>
      <point x="121" y="552"/>
      <point x="107" y="552"/>
      <point x="98" y="543" type="curve" smooth="yes"/>
      <point x="68" y="513" type="line" smooth="yes"/>
      <point x="59" y="504"/>
      <point x="59" y="490"/>
      <point x="68" y="481" type="curve" smooth="yes"/>
      <point x="216" y="332" type="line"/>
      <point x="68" y="185" type="line" smooth="yes"/>
      <point x="59" y="175"/>
      <point x="59" y="162"/>
      <point x="68" y="152" type="curve" smooth="yes"/>
      <point x="98" y="122" type="line" smooth="yes"/>
    </contour>
  </outline>
</glyph>
<glyph name="thorn" format="1">
  <advance width="595"/>
  <unicode hex="00FE"/>
  <outline>
    <contour>
      <point x="144" y="-190" type="line" smooth="yes"/>
      <point x="157" y="-190"/>
      <point x="167" y="-181"/>
      <point x="167" y="-167" type="curve" smooth="yes"/>
      <point x="167" y="66" type="line"/>
      <point x="199" y="22"/>
      <point x="250" y="-10"/>
      <point x="329" y="-10" type="curve" smooth="yes"/>
      <point x="478" y="-10"/>
      <point x="538" y="102"/>
      <point x="543" y="226" type="curve" smooth="yes"/>
      <point x="544" y="248"/>
      <point x="544" y="272"/>
      <point x="543" y="294" type="curve" smooth="yes"/>
      <point x="538" y="419"/>
      <point x="478" y="530"/>
      <point x="329" y="530" type="curve" smooth="yes"/>
      <point x="248" y="530"/>
      <point x="199" y="499"/>
      <point x="167" y="455" type="curve"/>
      <point x="167" y="687" type="line" smooth="yes"/>
      <point x="167" y="701"/>
      <point x="157" y="710"/>
      <point x="144" y="710" type="curve" smooth="yes"/>
      <point x="99" y="710" type="line" smooth="yes"/>
      <point x="85" y="710"/>
      <point x="76" y="701"/>
      <point x="76" y="687" type="curve" smooth="yes"/>
      <point x="76" y="-167" type="line" smooth="yes"/>
      <point x="76" y="-181"/>
      <point x="85" y="-190"/>
      <point x="99" y="-190" type="curve" smooth="yes"/>
    </contour>
    <contour>
      <point x="211" y="68"/>
      <point x="168" y="146"/>
      <point x="166" y="218" type="curve" smooth="yes"/>
      <point x="165" y="240"/>
      <point x="165" y="274"/>
      <point x="166" y="296" type="curve" smooth="yes"/>
      <point x="169" y="370"/>
      <point x="208" y="452"/>
      <point x="310" y="452" type="curve" smooth="yes"/>
      <point x="413" y="452"/>
      <point x="446" y="375"/>
      <point x="450" y="289" type="curve" smooth="yes"/>
      <point x="452" y="269"/>
      <point x="452" y="251"/>
      <point x="450" y="231" type="curve" smooth="yes"/>
      <point x="446" y="145"/>
      <point x="413" y="68"/>
      <point x="310" y="68" type="curve" smooth="yes"/>
    </contour>
  </outline>
</glyph>
<glyph name="Dcroat" format="1">
  <advance width="697"/>
  <unicode hex="0110"/>
  <outline>
    <contour>
      <point x="349" y="0" type="line" smooth="yes"/>
      <point x="553" y="0"/>
      <point x="628" y="87"/>
      <point x="632" y="272" type="curve" smooth="yes"/>
      <point x="634" y="331"/>
      <point x="634" y="370"/>
      <point x="632" y="429" type="curve" smooth="yes"/>
      <point x="629" y="604"/>
      <point x="553" y="700"/>
      <point x="345" y="700" type="curve"/>
      <point x="120" y="700" type="line" smooth="yes"/>
      <point x="106" y="700"/>
      <point x="97" y="691"/>
      <point x="97" y="676" type="curve" smooth="yes"/>
      <point x="97" y="390" type="line"/>
      <point x="38" y="390" type="line" smooth="yes"/>
      <point x="25" y="390"/>
      <point x="15" y="381"/>
      <point x="15" y="367" type="curve" smooth="yes"/>
      <point x="15" y="337" type="line" smooth="yes"/>
      <point x="15" y="324"/>
      <point x="25" y="314"/>
      <point x="38" y="314" type="curve" smooth="yes"/>
      <point x="97" y="314" type="line"/>
      <point x="97" y="23" type="line" smooth="yes"/>
      <point x="97" y="10"/>
      <point x="106" y="0"/>
      <point x="120" y="0" type="curve" smooth="yes"/>
    </contour>
    <contour>
      <point x="191" y="314" type="line"/>
      <point x="325" y="314" type="line" smooth="yes"/>
      <point x="339" y="314"/>
      <point x="348" y="324"/>
      <point x="348" y="337" type="curve" smooth="yes"/>
      <point x="348" y="367" type="line" smooth="yes"/>
      <point x="348" y="381"/>
      <point x="339" y="390"/>
      <point x="325" y="390" type="curve" smooth="yes"/>
      <point x="191" y="390" type="line"/>
      <point x="191" y="618" type="line"/>
      <point x="341" y="618" type="line" smooth="yes"/>
      <point x="482" y="618"/>
      <point x="535" y="556"/>
      <point x="538" y="425" type="curve" smooth="yes"/>
      <point x="539" y="366"/>
      <point x="539" y="336"/>
      <point x="538" y="276" type="curve" smooth="yes"/>
      <point x="535" y="137"/>
      <point x="485" y="83"/>
      <point x="345" y="83" type="curve" smooth="yes"/>
      <point x="191" y="83" type="line"/>
    </contour>
  </outline>
</glyph>
<glyph name="jdotless" format="1">
  <advance width="305"/>
  <unicode hex="0237"/>
  <outline>
    <contour>
      <point x="60" y="-190" type="line"/>
      <point x="186" y="-190"/>
      <point x="229" y="-112"/>
      <point x="229" y="-7" type="curve" smooth="yes"/>
      <point x="229" y="497" type="line" smooth="yes"/>
      <point x="229" y="511"/>
      <point x="219" y="520"/>
      <point x="206" y="520" type="curve" smooth="yes"/>
      <point x="44" y="520" type="line" smooth="yes"/>
      <point x="30" y="520"/>
      <point x="21" y="511"/>
      <point x="21" y="497" type="curve" smooth="yes"/>
      <point x="21" y="464" type="line" smooth="yes"/>
      <point x="21" y="451"/>
      <point x="30" y="441"/>
      <point x="44" y="441" type="curve" smooth="yes"/>
      <point x="137" y="441" type="line"/>
      <point x="137" y="-7" type="line" smooth="yes"/>
      <point x="137" y="-63"/>
      <point x="128" y="-107"/>
      <point x="55" y="-107" type="curve" smooth="yes"/>
      <point x="35" y="-107" type="line" smooth="yes"/>
      <point x="22" y="-107"/>
      <point x="12" y="-116"/>
      <point x="12" y="-130" type="curve" smooth="yes"/>
      <point x="12" y="-167" type="line" smooth="yes"/>
      <point x="12" y="-181"/>
      <point x="22" y="-190"/>
      <point x="35" y="-190" type="curve" smooth="yes"/>
    </contour>
  </outline>
</glyph>
<glyph name="De-cy" format="1">
  <advance width="700"/>
  <unicode hex="0414"/>
  <outline>
    <contour>
      <point x="90" y="-110" type="line" smooth="yes"/>
      <point x="104" y="-110"/>
      <point x="113" y="-101"/>
      <point x="113" y="-87" type="curve" smooth="yes"/>
      <point x="113" y="0" type="line"/>
      <point x="553" y="0" type="line"/>
      <point x="553" y="-87" type="line" smooth="yes"/>
      <point x="553" y="-101"/>
      <point x="562" y="-110"/>
      <point x="575" y="-110" type="curve" smooth="yes"/>
      <point x="623" y="-110" type="line" smooth="yes"/>
      <point x="637" y="-110"/>
      <point x="647" y="-101"/>
      <point x="647" y="-87" type="curve" smooth="yes"/>
      <point x="647" y="64" type="line" smooth="yes"/>
      <point x="647" y="77"/>
      <point x="637" y="87"/>
      <point x="623" y="87" type="curve" smooth="yes"/>
      <point x="599" y="87" type="line"/>
      <point x="599" y="677" type="line" smooth="yes"/>
      <point x="599" y="691"/>
      <point x="590" y="700"/>
      <point x="576" y="700" type="curve" smooth="yes"/>
      <point x="159" y="700" type="line"/>
      <point x="146" y="700"/>
      <point x="137" y="691"/>
      <point x="137" y="677" type="curve" smooth="yes"/>
      <point x="137" y="190" type="line" smooth="yes"/>
      <point x="137" y="117"/>
      <point x="105" y="88"/>
      <point x="58" y="87" type="curve" smooth="yes"/>
      <point x="42" y="87" type="line" smooth="yes"/>
      <point x="29" y="87"/>
      <point x="19" y="77"/>
      <point x="19" y="64" type="curve" smooth="yes"/>
      <point x="19" y="-87" type="line" smooth="yes"/>
      <point x="19" y="-101"/>
      <point x="29" y="-110"/>
      <point x="42" y="-110" type="curve" smooth="yes"/>
    </contour>
    <contour>
      <point x="204" y="89"/>
      <point x="230" y="113"/>
      <point x="230" y="181" type="curve" smooth="yes"/>
      <point x="230" y="613" type="line"/>
      <point x="505" y="613" type="line"/>
      <point x="505" y="87" type="line"/>
      <point x="203" y="87" type="line"/>
    </contour>
  </outline>
</glyph>
<glyph name="ve-cy" format="1">
  <advance width="583"/>
  <unicode hex="0432"/>
  <outline>
    <contour>
      <point x="339" y="0" type="line"/>
      <point x="459" y="0"/>
      <point x="530" y="52"/>
      <point x="530" y="147" type="curve" smooth="yes"/>
      <point x="530" y="199"/>
      <point x="519" y="237"/>
      <point x="465" y="273" type="curve"/>
      <point x="493" y="296"/>
      <point x="518" y="320"/>
      <point x="518" y="381" type="curve" smooth="yes"/>
      <point x="518" y="465"/>
      <point x="454" y="520"/>
      <point x="332" y="520" type="curve" smooth="yes"/>
      <point x="98" y="520" type="line" smooth="yes"/>
      <point x="85" y="520"/>
      <point x="75" y="511"/>
      <point x="75" y="497" type="curve" smooth="yes"/>
      <point x="75" y="23" type="line" smooth="yes"/>
      <point x="75" y="10"/>
      <point x="85" y="0"/>
      <point x="98" y="0" type="curve" smooth="yes"/>
    </contour>
    <contour>
      <point x="163" y="226" type="line"/>
      <point x="331" y="226" type="line" smooth="yes"/>
      <point x="404" y="226"/>
      <point x="440" y="202"/>
      <point x="440" y="148" type="curve" smooth="yes"/>
      <point x="440" y="96"/>
      <point x="395" y="71"/>
      <point x="331" y="71" type="curve" smooth="yes"/>
      <point x="163" y="71" type="line"/>
    </contour>
    <contour>
      <point x="163" y="449" type="line"/>
      <point x="325" y="449" type="line" smooth="yes"/>
      <point x="389" y="449"/>
      <point x="432" y="431"/>
      <point x="432" y="380" type="curve" smooth="yes"/>
      <point x="432" y="328"/>
      <point x="390" y="298"/>
      <point x="325" y="298" type="curve" smooth="yes"/>
      <point x="163" y="298" type="line"/>
    </contour>
  </outline>
</glyph>
<glyph name="ge-cy" format="1">
  <advance width="492"/>
  <unicode hex="0433"/>
  <outline>
    <contour>
      <point x="141" y="0" type="line" smooth="yes"/>
      <point x="155" y="0"/>
      <point x="164" y="10"/>
      <point x="164" y="23" type="curve" smooth="yes"/>
      <point x="164" y="443" type="line"/>
      <point x="458" y="443" type="line" smooth="yes"/>
      <point x="471" y="443"/>
      <point x="481" y="452"/>
      <point x="481" y="465" type="curve" smooth="yes"/>
      <point x="481" y="497" type="line" smooth="yes"/>
      <point x="481" y="511"/>
      <point x="471" y="520"/>
      <point x="458" y="520" type="curve" smooth="yes"/>
      <point x="98" y="520" type="line" smooth="yes"/>
      <point x="85" y="520"/>
      <point x="75" y="511"/>
      <point x="75" y="497" type="curve" smooth="yes"/>
      <point x="75" y="23" type="line" smooth="yes"/>
      <point x="75" y="10"/>
      <point x="85" y="0"/>
      <point x="98" y="0" type="curve" smooth="yes"/>
    </contour>
  </outline>
</glyph>
<glyph name="yeru-cy" format="1">
  <advance width="704"/>
  <unicode hex="044B"/>
  <outline>
    <contour>
      <point x="263" y="0" type="line" smooth="yes"/>
      <point x="415" y="0"/>
      <point x="490" y="74"/>
      <point x="490" y="191" type="curve" smooth="yes"/>
      <point x="490" y="305"/>
      <point x="410" y="386"/>
      <point x="276" y="386" type="curve" smooth="yes"/>
      <point x="166" y="386" type="line"/>
      <point x="166" y="497" type="line" smooth="yes"/>
      <point x="166" y="511"/>
      <point x="156" y="520"/>
      <point x="143" y="520" type="curve" smooth="yes"/>
      <point x="98" y="520" type="line" smooth="yes"/>
      <point x="85" y="520"/>
      <point x="75" y="511"/>
      <point x="75" y="497" type="curve" smooth="yes"/>
      <point x="75" y="23" type="line" smooth="yes"/>
      <point x="75" y="10"/>
      <point x="85" y="0"/>
      <point x="98" y="0" type="curve" smooth="yes"/>
    </contour>
    <contour>
      <point x="165" y="309" type="line"/>
      <point x="271" y="309" type="line" smooth="yes"/>
      <point x="365" y="309"/>
      <point x="404" y="263"/>
      <point x="404" y="192" type="curve" smooth="yes"/>
      <point x="404" y="122"/>
      <point x="364" y="78"/>
      <point x="271" y="78" type="curve" smooth="yes"/>
      <point x="165" y="78" type="line"/>
    </contour>
    <contour>
      <point x="606" y="0" type="line" smooth="yes"/>
      <point x="619" y="0"/>
      <point x="629" y="10"/>
      <point x="629" y="23" type="curve" smooth="yes"/>
      <point x="629" y="497" type="line" smooth="yes"/>
      <point x="629" y="511"/>
      <point x="619" y="520"/>
      <point x="606" y="520" type="curve" smooth="yes"/>
      <point x="562" y="520" type="line" smooth="yes"/>
      <point x="549" y="520"/>
      <point x="539" y="511"/>
      <point x="539" y="497" type="curve" smooth="yes"/>
      <point x="539" y="23" type="line" smooth="yes"/>
      <point x="539" y="10"/>
      <point x="549" y="0"/>
      <point x="562" y="0" type="curve" smooth="yes"/>
    </contour>
  </outline>
</glyph>
<glyph name="softsign-cy" format="1">
  <advance width="526"/>
  <unicode hex="044C"/>
  <outline>
    <contour>
      <point x="263" y="0" type="line" smooth="yes"/>
      <point x="415" y="0"/>
      <point x="490" y="74"/>
      <point x="490" y="191" type="curve" smooth="yes"/>
      <point x="490" y="305"/>
      <point x="410" y="386"/>
      <point x="276" y="386" type="curve" smooth="yes"/>
      <point x="166" y="386" type="line"/>
      <point x="166" y="497" type="line" smooth="yes"/>
      <point x="166" y="511"/>
      <point x="156" y="520"/>
      <point x="143" y="520" type="curve" smooth="yes"/>
      <point x="98" y="520" type="line" smooth="yes"/>
      <point x="85" y="520"/>
      <point x="75" y="511"/>
      <point x="75" y="497" type="curve" smooth="yes"/>
      <point x="75" y="23" type="line" smooth="yes"/>
      <point x="75" y="10"/>
      <point x="85" y="0"/>
      <point x="98" y="0" type="curve" smooth="yes"/>
    </contour>
    <contour>
      <point x="165" y="309" type="line"/>
      <point x="271" y="309" type="line" smooth="yes"/>
      <point x="365" y="309"/>
      <point x="404" y="263"/>
      <point x="404" y="192" type="curve" smooth="yes"/>
      <point x="404" y="122"/>
      <point x="364" y="78"/>
      <point x="271" y="78" type="curve" smooth="yes"/>
      <point x="165" y="78" type="line"/>
    </contour>
  </outline>
</glyph>
<glyph name="ia-cy" format="1">
  <advance width="557"/>
  <unicode hex="044F"/>
  <outline>
    <contour>
      <point x="115" y="0" type="line" smooth="yes"/>
      <point x="127" y="0"/>
      <point x="137" y="9"/>
      <point x="143" y="15" type="curve" smooth="yes"/>
      <point x="245" y="176" type="line"/>
      <point x="391" y="176" type="line"/>
      <point x="391" y="23" type="line" smooth="yes"/>
      <point x="391" y="10"/>
      <point x="400" y="0"/>
      <point x="414" y="0" type="curve" smooth="yes"/>
      <point x="459" y="0" type="line" smooth="yes"/>
      <point x="472" y="0"/>
      <point x="482" y="10"/>
      <point x="482" y="23" type="curve" smooth="yes"/>
      <point x="482" y="497" type="line" smooth="yes"/>
      <point x="482" y="511"/>
      <point x="472" y="520"/>
      <point x="459" y="520" type="curve" smooth="yes"/>
      <point x="254" y="520" type="line" smooth="yes"/>
      <point x="129" y="520"/>
      <point x="57" y="456"/>
      <point x="57" y="348" type="curve" smooth="yes"/>
      <point x="57" y="274"/>
      <point x="92" y="222"/>
      <point x="154" y="198" type="curve"/>
      <point x="52" y="40" type="line" smooth="yes"/>
      <point x="46" y="32"/>
      <point x="45" y="26"/>
      <point x="45" y="21" type="curve" smooth="yes"/>
      <point x="45" y="9"/>
      <point x="54" y="0"/>
      <point x="66" y="0" type="curve" smooth="yes"/>
    </contour>
    <contour>
      <point x="181" y="254"/>
      <point x="147" y="291"/>
      <point x="147" y="348" type="curve" smooth="yes"/>
      <point x="147" y="405"/>
      <point x="180" y="442"/>
      <point x="259" y="442" type="curve" smooth="yes"/>
      <point x="392" y="442" type="line"/>
      <point x="392" y="254" type="line"/>
      <point x="259" y="254" type="line" smooth="yes"/>
    </contour>
  </outline>
</glyph>
<glyph name="gheupturn-cy" format="1">
  <advance width="495"/>
  <unicode hex="0491"/>
  <outline>
    <contour>
      <point x="141" y="0" type="line" smooth="yes"/>
      <point x="155" y="0"/>
      <point x="164" y="10"/>
      <point x="164" y="23" type="curve" smooth="yes"/>
      <point x="164" y="443" type="line"/>
      <point x="461" y="443" type="line" smooth="yes"/>
      <point x="475" y="443"/>
      <point x="484" y="452"/>
      <point x="484" y="465" type="curve" smooth="yes"/>
      <point x="484" y="607" type="line" smooth="yes"/>
      <point x="484" y="621"/>
      <point x="475" y="630"/>
      <point x="461" y="630" type="curve" smooth="yes"/>
      <point x="424" y="630" type="line" smooth="yes"/>
      <point x="411" y="630"/>
      <point x="401" y="621"/>
      <point x="401" y="607" type="curve" smooth="yes"/>
      <point x="401" y="520" type="line"/>
      <point x="96" y="520" type="line"/>
      <point x="84" y="519"/>
      <point x="75" y="510"/>
      <point x="75" y="497" type="curve" smooth="yes"/>
      <point x="75" y="23" type="line" smooth="yes"/>
      <point x="75" y="10"/>
      <point x="85" y="0"/>
      <point x="98" y="0" type="curve" smooth="yes"/>
    </contour>
  </outline>
</glyph>
<glyph name="endash" format="1">
  <advance width="574"/>
  <unicode hex="2013"/>
  <outline>
    <contour>
      <point x="482" y="260" type="line" smooth="yes"/>
      <point x="495" y="260"/>
      <point x="505" y="269"/>
      <point x="505" y="282" type="curve" smooth="yes"/>
      <point x="505" y="318" type="line" smooth="yes"/>
      <point x="505" y="331"/>
      <point x="495" y="341"/>
      <point x="482" y="341" type="curve" smooth="yes"/>
      <point x="92" y="341" type="line" smooth="yes"/>
      <point x="79" y="341"/>
      <point x="69" y="331"/>
      <point x="69" y="318" type="curve" smooth="yes"/>
      <point x="69" y="282" type="line" smooth="yes"/>
      <point x="69" y="269"/>
      <point x="79" y="260"/>
      <point x="92" y="260" type="curve" smooth="yes"/>
    </contour>
  </outline>
</glyph>
<glyph name="dagger" format="1">
  <advance width="426"/>
  <unicode hex="2020"/>
  <outline>
    <contour>
      <point x="231" y="0" type="line" smooth="yes"/>
      <point x="245" y="0"/>
      <point x="254" y="10"/>
      <point x="254" y="23" type="curve" smooth="yes"/>
      <point x="254" y="445" type="line"/>
      <point x="370" y="445" type="line" smooth="yes"/>
      <point x="384" y="445"/>
      <point x="393" y="454"/>
      <point x="393" y="468" type="curve" smooth="yes"/>
      <point x="393" y="501" type="line" smooth="yes"/>
      <point x="393" y="515"/>
      <point x="384" y="524"/>
      <point x="370" y="524" type="curve" smooth="yes"/>
      <point x="254" y="524" type="line"/>
      <point x="254" y="677" type="line" smooth="yes"/>
      <point x="254" y="691"/>
      <point x="245" y="700"/>
      <point x="231" y="700" type="curve" smooth="yes"/>
      <point x="195" y="700" type="line" smooth="yes"/>
      <point x="182" y="700"/>
      <point x="172" y="691"/>
      <point x="172" y="677" type="curve" smooth="yes"/>
      <point x="172" y="524" type="line"/>
      <point x="56" y="524" type="line"/>
      <point x="43" y="524"/>
      <point x="33" y="515"/>
      <point x="33" y="501" type="curve" smooth="yes"/>
      <point x="33" y="468" type="line" smooth="yes"/>
      <point x="33" y="454"/>
      <point x="43" y="445"/>
      <point x="56" y="445" type="curve" smooth="yes"/>
      <point x="172" y="445" type="line"/>
      <point x="172" y="23" type="line" smooth="yes"/>
      <point x="172" y="10"/>
      <point x="182" y="0"/>
      <point x="195" y="0" type="curve" smooth="yes"/>
    </contour>
  </outline>
</glyph>
<glyph name="oneinferior" format="1">
  <advance width="242"/>
  <unicode hex="2081"/>
  <outline>
    <contour>
      <point x="173" y="-170" type="line" smooth="yes"/>
      <point x="186" y="-170"/>
      <point x="195" y="-161"/>
      <point x="195" y="-148" type="curve" smooth="yes"/>
      <point x="195" y="158" type="line" smooth="yes"/>
      <point x="195" y="171"/>
      <point x="186" y="180"/>
      <point x="173" y="180" type="curve" smooth="yes"/>
      <point x="147" y="180" type="line" smooth="yes"/>
      <point x="137" y="180"/>
      <point x="131" y="178"/>
      <point x="124" y="173" type="curve" smooth="yes"/>
      <point x="25" y="99" type="line" smooth="yes"/>
      <point x="15" y="91"/>
      <point x="13" y="78"/>
      <point x="21" y="68" type="curve" smooth="yes"/>
      <point x="33" y="52" type="line" smooth="yes"/>
      <point x="41" y="41"/>
      <point x="55" y="40"/>
      <point x="64" y="47" type="curve" smooth="yes"/>
      <point x="124" y="92" type="line"/>
      <point x="124" y="-148" type="line" smooth="yes"/>
      <point x="124" y="-161"/>
      <point x="133" y="-170"/>
      <point x="146" y="-170" type="curve" smooth="yes"/>
    </contour>
  </outline>
</glyph>
<glyph name="parenrightinferior" format="1">
  <advance width="229"/>
  <unicode hex="208E"/>
  <outline>
    <contour>
      <point x="135" y="-225"/>
      <point x="192" y="-164"/>
      <point x="192" y="11" type="curve" smooth="yes"/>
      <point x="192" y="186"/>
      <point x="135" y="245"/>
      <point x="51" y="245" type="curve" smooth="yes"/>
      <point x="36" y="245"/>
      <point x="27" y="238"/>
      <point x="27" y="223" type="curve" smooth="yes"/>
      <point x="27" y="203" type="line" smooth="yes"/>
      <point x="27" y="188"/>
      <point x="38" y="180"/>
      <point x="54" y="180" type="curve" smooth="yes"/>
      <point x="99" y="178"/>
      <point x="123" y="123"/>
      <point x="123" y="11" type="curve" smooth="yes"/>
      <point x="123" y="-101"/>
      <point x="99" y="-158"/>
      <point x="54" y="-160" type="curve" smooth="yes"/>
      <point x="38" y="-160"/>
      <point x="27" y="-168"/>
      <point x="27" y="-183" type="curve" smooth="yes"/>
      <point x="27" y="-203" type="line" smooth="yes"/>
      <point x="27" y="-218"/>
      <point x="36" y="-225"/>
      <point x="51" y="-225" type="curve" smooth="yes"/>
    </contour>
  </outline>
</glyph>
<glyph name="numero" format="1">
  <advance width="1154"/>
  <unicode hex="2116"/>
  <outline>
    <contour>
      <point x="145" y="0" type="line" smooth="yes"/>
      <point x="159" y="0"/>
      <point x="169" y="10"/>
      <point x="169" y="23" type="curve" smooth="yes"/>
      <point x="169" y="521" type="line"/>
      <point x="492" y="14" type="line" smooth="yes"/>
      <point x="494" y="10"/>
      <point x="501" y="0"/>
      <point x="516" y="0" type="curve" smooth="yes"/>
      <point x="562" y="0" type="line" smooth="yes"/>
      <point x="576" y="0"/>
      <point x="585" y="10"/>
      <point x="585" y="24" type="curve" smooth="yes"/>
      <point x="585" y="676" type="line" smooth="yes"/>
      <point x="585" y="691"/>
      <point x="576" y="700"/>
      <point x="562" y="700" type="curve" smooth="yes"/>
      <point x="517" y="700" type="line" smooth="yes"/>
      <point x="503" y="700"/>
      <point x="494" y="691"/>
      <point x="494" y="676" type="curve" smooth="yes"/>
      <point x="494" y="173" type="line"/>
      <point x="171" y="686" type="line" smooth="yes"/>
      <point x="168" y="690"/>
      <point x="162" y="700"/>
      <point x="146" y="700" type="curve" smooth="yes"/>
      <point x="100" y="700" type="line" smooth="yes"/>
      <point x="87" y="700"/>
      <point x="77" y="691"/>
      <point x="77" y="676" type="curve" smooth="yes"/>
      <point x="77" y="23" type="line" smooth="yes"/>
      <point x="77" y="10"/>
      <point x="87" y="0"/>
      <point x="100" y="0" type="curve" smooth="yes"/>
    </contour>
    <contour>
      <point x="1076" y="0" type="line" smooth="yes"/>
      <point x="1089" y="0"/>
      <point x="1098" y="10"/>
      <point x="1098" y="23" type="curve" smooth="yes"/>
      <point x="1098" y="42" type="line" smooth="yes"/>
      <point x="1098" y="55"/>
      <point x="1089" y="65"/>
      <point x="1076" y="65" type="curve" smooth="yes"/>
      <point x="658" y="65" type="line" smooth="yes"/>
      <point x="645" y="65"/>
      <point x="635" y="55"/>
      <point x="635" y="42" type="curve" smooth="yes"/>
      <point x="635" y="23" type="line" smooth="yes"/>
      <point x="635" y="10"/>
      <point x="645" y="0"/>
      <point x="658" y="0" type="curve" smooth="yes"/>
    </contour>
    <contour>
      <point x="1007" y="95"/>
      <point x="1098" y="188"/>
      <point x="1098" y="345" type="curve" smooth="yes"/>
      <point x="1098" y="502"/>
      <point x="1006" y="595"/>
      <point x="867" y="595" type="curve" smooth="yes"/>
      <point x="728" y="595"/>
      <point x="635" y="502"/>
      <point x="635" y="345" type="curve" smooth="yes"/>
      <point x="635" y="188"/>
      <point x="726" y="95"/>
      <point x="867" y="95" type="curve" smooth="yes"/>
    </contour>
    <contour>
      <point x="792" y="170"/>
      <point x="727" y="219"/>
      <point x="727" y="345" type="curve" smooth="yes"/>
      <point x="727" y="470"/>
      <point x="792" y="520"/>
      <point x="867" y="520" type="curve" smooth="yes"/>
      <point x="942" y="520"/>
      <point x="1007" y="470"/>
      <point x="1007" y="345" type="curve" smooth="yes"/>
      <point x="1007" y="220"/>
      <point x="942" y="170"/>
      <point x="867" y="170" type="curve" smooth="yes"/>
    </contour>
  </outline>
</glyph>
<glyph name="fi" format="1">
  <advance width="543"/>
  <unicode hex="FB01"/>
  <outline>
    <contour>
      <point x="193" y="0" type="line" smooth="yes"/>
      <point x="206" y="0"/>
      <point x="216" y="10"/>
      <point x="216" y="23" type="curve" smooth="yes"/>
      <point x="216" y="443" type="line"/>
      <point x="379" y="443" type="line"/>
      <point x="379" y="23" type="line" smooth="yes"/>
      <point x="379" y="10"/>
      <point x="389" y="0"/>
      <point x="402" y="0" type="curve" smooth="yes"/>
      <point x="445" y="0" type="line" smooth="yes"/>
      <point x="459" y="0"/>
      <point x="468" y="10"/>
      <point x="468" y="23" type="curve" smooth="yes"/>
      <point x="468" y="497" type="line" smooth="yes"/>
      <point x="468" y="511"/>
      <point x="459" y="520"/>
      <point x="445" y="520" type="curve" smooth="yes"/>
      <point x="216" y="520" type="line"/>
      <point x="216" y="565" type="line" smooth="yes"/>
      <point x="216" y="628"/>
      <point x="233" y="663"/>
      <point x="298" y="663" type="curve" smooth="yes"/>
      <point x="445" y="663" type="line" smooth="yes"/>
      <point x="459" y="663"/>
      <point x="468" y="672"/>
      <point x="468" y="685" type="curve" smooth="yes"/>
      <point x="468" y="717" type="line" smooth="yes"/>
      <point x="468" y="731"/>
      <point x="459" y="740"/>
      <point x="445" y="740" type="curve" smooth="yes"/>
      <point x="296" y="740" type="line" smooth="yes"/>
      <point x="170" y="740"/>
      <point x="127" y="672"/>
      <point x="127" y="570" type="curve" smooth="yes"/>
      <point x="127" y="520" type="line"/>
      <point x="41" y="520" type="line" smooth="yes"/>
      <point x="28" y="520"/>
      <point x="18" y="511"/>
      <point x="18" y="497" type="curve" smooth="yes"/>
      <point x="18" y="465" type="line" smooth="yes"/>
      <point x="18" y="452"/>
      <point x="28" y="443"/>
      <point x="41" y="443" type="curve" smooth="yes"/>
      <point x="127" y="443" type="line"/>
      <point x="127" y="23" type="line" smooth="yes"/>
      <point x="127" y="10"/>
      <point x="136" y="0"/>
      <point x="149" y="0" type="curve" smooth="yes"/>
    </contour>
  </outline>
</glyph>
<glyph name="Ogonek" format="1">
  <advance width="311"/>
  <outline>
    <contour>
      <point x="222" y="-220" type="line" smooth="yes"/>
      <point x="235" y="-220"/>
      <point x="245" y="-211"/>
      <point x="245" y="-197" type="curve" smooth="yes"/>
      <point x="245" y="-175" type="line" smooth="yes"/>
      <point x="245" y="-162"/>
      <point x="235" y="-152"/>
      <point x="222" y="-152" type="curve" smooth="yes"/>
      <point x="208" y="-152" type="line" smooth="yes"/>
      <point x="165" y="-152"/>
      <point x="136" y="-123"/>
      <point x="136" y="-77" type="curve" smooth="yes"/>
      <point x="136" y="-31"/>
      <point x="165" y="0"/>
      <point x="208" y="0" type="curve" smooth="yes"/>
      <point x="222" y="0" type="line" smooth="yes"/>
      <point x="235" y="0"/>
      <point x="245" y="10"/>
      <point x="245" y="23" type="curve" smooth="yes"/>
      <point x="245" y="45" type="line" smooth="yes"/>
      <point x="245" y="58"/>
      <point x="235" y="68"/>
      <point x="222" y="68" type="curve" smooth="yes"/>
      <point x="204" y="68" type="line" smooth="yes"/>
      <point x="116" y="68"/>
      <point x="65" y="10"/>
      <point x="65" y="-77" type="curve" smooth="yes"/>
      <point x="65" y="-163"/>
      <point x="116" y="-220"/>
      <point x="204" y="-220" type="curve" smooth="yes"/>
    </contour>
  </outline>
</glyph>
<glyph name="at.cap" format="1">
  <advance width="820"/>
  <outline>
    <contour>
      <point x="569" y="-51"/>
      <point x="652" y="1"/>
      <point x="706" y="59" type="curve" smooth="yes"/>
      <point x="709" y="63"/>
      <point x="711" y="67"/>
      <point x="711" y="73" type="curve" smooth="yes"/>
      <point x="712" y="86"/>
      <point x="702" y="95"/>
      <point x="689" y="95" type="curve" smooth="yes"/>
      <point x="652" y="95" type="line" smooth="yes"/>
      <point x="639" y="95"/>
      <point x="632" y="88"/>
      <point x="626" y="83" type="curve" smooth="yes"/>
      <point x="598" y="62"/>
      <point x="554" y="17"/>
      <point x="410" y="17" type="curve" smooth="yes"/>
      <point x="243" y="17"/>
      <point x="148" y="106"/>
      <point x="132" y="258" type="curve" smooth="yes"/>
      <point x="128" y="295"/>
      <point x="128" y="385"/>
      <point x="132" y="419" type="curve" smooth="yes"/>
      <point x="150" y="572"/>
      <point x="241" y="663"/>
      <point x="406" y="663" type="curve" smooth="yes"/>
      <point x="606" y="663"/>
      <point x="685" y="577"/>
      <point x="696" y="419" type="curve" smooth="yes"/>
      <point x="700" y="369"/>
      <point x="697" y="320"/>
      <point x="696" y="301" type="curve" smooth="yes"/>
      <point x="696" y="271"/>
      <point x="688" y="214"/>
      <point x="633" y="214" type="curve" smooth="yes"/>
      <point x="596" y="214"/>
      <point x="569" y="242"/>
      <point x="569" y="300" type="curve" smooth="yes"/>
      <point x="569" y="514" type="line" smooth="yes"/>
      <point x="569" y="527"/>
      <point x="560" y="537"/>
      <point x="547" y="537" type="curve" smooth="yes"/>
      <point x="520" y="537" type="line" smooth="yes"/>
      <point x="507" y="537"/>
      <point x="498" y="527"/>
      <point x="498" y="514" type="curve" smooth="yes"/>
      <point x="498" y="496" type="line"/>
      <point x="479" y="520"/>
      <point x="450" y="545"/>
      <point x="395" y="545" type="curve" smooth="yes"/>
      <point x="297" y="545"/>
      <point x="233" y="470"/>
      <point x="233" y="340" type="curve" smooth="yes"/>
      <point x="233" y="209"/>
      <point x="297" y="136"/>
      <point x="396" y="136" type="curve" smooth="yes"/>
      <point x="475" y="136"/>
      <point x="507" y="176"/>
      <point x="522" y="202" type="curve"/>
      <point x="533" y="187"/>
      <point x="567" y="146"/>
      <point x="633" y="146" type="curve" smooth="yes"/>
      <point x="713" y="146"/>
      <point x="762" y="196"/>
      <point x="768" y="293" type="curve" smooth="yes"/>
      <point x="769" y="312"/>
      <point x="771" y="374"/>
      <point x="768" y="424" type="curve" smooth="yes"/>
      <point x="758" y="616"/>
      <point x="648" y="731"/>
      <point x="406" y="731" type="curve" smooth="yes"/>
      <point x="198" y="731"/>
      <point x="80" y="609"/>
      <point x="60" y="424" type="curve" smooth="yes"/>
      <point x="56" y="390"/>
      <point x="56" y="290"/>
      <point x="60" y="253" type="curve" smooth="yes"/>
      <point x="80" y="62"/>
      <point x="197" y="-51"/>
      <point x="410" y="-51" type="curve" smooth="yes"/>
    </contour>
    <contour>
      <point x="332" y="204"/>
      <point x="305" y="266"/>
      <point x="305" y="340" type="curve" smooth="yes"/>
      <point x="305" y="421"/>
      <point x="332" y="476"/>
      <point x="401" y="476" type="curve" smooth="yes"/>
      <point x="474" y="476"/>
      <point x="498" y="421"/>
      <point x="498" y="340" type="curve" smooth="yes"/>
      <point x="498" y="258"/>
      <point x="474" y="204"/>
      <point x="401" y="204" type="curve" smooth="yes"/>
    </contour>
  </outline>
</glyph>
<glyph name="eight.otlf" format="1">
  <advance width="617"/>
  <outline>
    <contour>
      <point x="461" y="-10"/>
      <point x="569" y="70"/>
      <point x="569" y="200" type="curve" smooth="yes"/>
      <point x="569" y="282"/>
      <point x="525" y="342"/>
      <point x="460" y="373" type="curve"/>
      <point x="511" y="404"/>
      <point x="543" y="454"/>
      <point x="543" y="522" type="curve" smooth="yes"/>
      <point x="543" y="641"/>
      <point x="447" y="710"/>
      <point x="308" y="710" type="curve" smooth="yes"/>
      <point x="168" y="710"/>
      <point x="72" y="640"/>
      <point x="72" y="522" type="curve" smooth="yes"/>
      <point x="72" y="453"/>
      <point x="104" y="403"/>
      <point x="156" y="373" type="curve"/>
      <point x="91" y="342"/>
      <point x="47" y="282"/>
      <point x="47" y="201" type="curve" smooth="yes"/>
      <point x="47" y="70"/>
      <point x="155" y="-10"/>
      <point x="308" y="-10" type="curve" smooth="yes"/>
    </contour>
    <contour>
      <point x="215" y="68"/>
      <point x="141" y="118"/>
      <point x="141" y="200" type="curve" smooth="yes"/>
      <point x="141" y="282"/>
      <point x="215" y="332"/>
      <point x="308" y="332" type="curve" smooth="yes"/>
      <point x="400" y="332"/>
      <point x="474" y="282"/>
      <point x="474" y="200" type="curve" smooth="yes"/>
      <point x="474" y="118"/>
      <point x="400" y="68"/>
      <point x="308" y="68" type="curve" smooth="yes"/>
    </contour>
    <contour>
      <point x="227" y="408"/>
      <point x="163" y="450"/>
      <point x="163" y="520" type="curve" smooth="yes"/>
      <point x="163" y="590"/>
      <point x="227" y="632"/>
      <point x="308" y="632" type="curve" smooth="yes"/>
      <point x="389" y="632"/>
      <point x="453" y="590"/>
      <point x="453" y="520" type="curve" smooth="yes"/>
      <point x="453" y="451"/>
      <point x="386" y="410"/>
      <point x="308" y="408" type="curve" smooth="yes"/>
    </contour>
  </outline>
</glyph>
<glyph name="endash.cap" format="1">
  <advance width="580"/>
  <outline>
    <contour>
      <point x="485" y="310" type="line" smooth="yes"/>
      <point x="498" y="310"/>
      <point x="508" y="319"/>
      <point x="508" y="332" type="curve" smooth="yes"/>
      <point x="508" y="368" type="line" smooth="yes"/>
      <point x="508" y="381"/>
      <point x="498" y="391"/>
      <point x="485" y="391" type="curve" smooth="yes"/>
      <point x="95" y="391" type="line" smooth="yes"/>
      <point x="82" y="391"/>
      <point x="72" y="381"/>
      <point x="72" y="368" type="curve" smooth="yes"/>
      <point x="72" y="332" type="line" smooth="yes"/>
      <point x="72" y="319"/>
      <point x="82" y="310"/>
      <point x="95" y="310" type="curve" smooth="yes"/>
    </contour>
  </outline>
</glyph>
<glyph name="hyphen.cap" format="1">
  <advance width="490"/>
  <outline>
    <contour>
      <point x="395" y="310" type="line" smooth="yes"/>
      <point x="408" y="310"/>
      <point x="418" y="319"/>
      <point x="418" y="332" type="curve" smooth="yes"/>
      <point x="418" y="368" type="line" smooth="yes"/>
      <point x="418" y="381"/>
      <point x="408" y="391"/>
      <point x="395" y="391" type="curve" smooth="yes"/>
      <point x="95" y="391" type="line" smooth="yes"/>
      <point x="82" y="391"/>
      <point x="72" y="381"/>
      <point x="72" y="368" type="curve" smooth="yes"/>
      <point x="72" y="332" type="line" smooth="yes"/>
      <point x="72" y="319"/>
      <point x="82" y="310"/>
      <point x="95" y="310" type="curve" smooth="yes"/>
    </contour>
  </outline>
</glyph>
<glyph name="parenleft.cap" format="1">
  <advance width="355"/>
  <outline>
    <contour>
      <point x="306" y="-117"/>
      <point x="317" y="-107"/>
      <point x="317" y="-94" type="curve" smooth="yes"/>
      <point x="317" y="-61" type="line" smooth="yes"/>
      <point x="317" y="-49"/>
      <point x="306" y="-39"/>
      <point x="296" y="-39" type="curve" smooth="yes"/>
      <point x="185" y="-37"/>
      <point x="147" y="63"/>
      <point x="147" y="351" type="curve" smooth="yes"/>
      <point x="147" y="639"/>
      <point x="185" y="738"/>
      <point x="296" y="740" type="curve" smooth="yes"/>
      <point x="306" y="740"/>
      <point x="317" y="750"/>
      <point x="317" y="762" type="curve" smooth="yes"/>
      <point x="317" y="795" type="line" smooth="yes"/>
      <point x="317" y="808"/>
      <point x="306" y="818"/>
      <point x="294" y="818" type="curve" smooth="yes"/>
      <point x="121" y="818"/>
      <point x="63" y="677"/>
      <point x="63" y="351" type="curve" smooth="yes"/>
      <point x="63" y="25"/>
      <point x="121" y="-117"/>
      <point x="294" y="-117" type="curve" smooth="yes"/>
    </contour>
  </outline>
</glyph>
<glyph name="zero.otlf" format="1">
  <advance width="617"/>
  <outline>
    <contour>
      <point x="492" y="-10"/>
      <point x="555" y="116"/>
      <point x="560" y="263" type="curve" smooth="yes"/>
      <point x="562" y="317"/>
      <point x="562" y="381"/>
      <point x="560" y="438" type="curve" smooth="yes"/>
      <point x="556" y="585"/>
      <point x="491" y="710"/>
      <point x="308" y="710" type="curve"/>
      <point x="125" y="710"/>
      <point x="60" y="585"/>
      <point x="55" y="438" type="curve" smooth="yes"/>
      <point x="54" y="381"/>
      <point x="54" y="317"/>
      <point x="55" y="263" type="curve" smooth="yes"/>
      <point x="61" y="116"/>
      <point x="124" y="-10"/>
      <point x="308" y="-10" type="curve"/>
    </contour>
    <contour>
      <point x="203" y="73"/>
      <point x="154" y="147"/>
      <point x="151" y="268" type="curve" smooth="yes"/>
      <point x="150" y="325"/>
      <point x="150" y="378"/>
      <point x="151" y="433" type="curve" smooth="yes"/>
      <point x="154" y="551"/>
      <point x="203" y="628"/>
      <point x="308" y="628" type="curve"/>
      <point x="413" y="628"/>
      <point x="462" y="551"/>
      <point x="464" y="433" type="curve" smooth="yes"/>
      <point x="466" y="378"/>
      <point x="466" y="325"/>
      <point x="464" y="268" type="curve" smooth="yes"/>
      <point x="462" y="147"/>
      <point x="413" y="73"/>
      <point x="308" y="73" type="curve" smooth="yes"/>
    </contour>
  </outline>
</glyph>
